<svg width="96" height="96" version="1.1" xmlns="http://www.w3.org/2000/svg" xmlns:xlink="http://www.w3.org/1999/xlink">
 <g transform="translate(0,48)">
  <g transform="translate(-.00015096)">
   <g transform="translate(4.0573 -3.7452)">
    <path transform="translate(-4.0572 -44.255)" d="m47.197 8.3457c-14.911 10.878-38.281 17.557-38.281 17.557 6.0441 50.23 39.035 62.422 39.035 62.422s32.487-12.678 39.035-63.152c0 0-28.204-9.9987-39.789-16.826zm15.141 17.283c0.25052 0.02316 0.51248 0.08784 0.74805 0.20508l7.1191 3.5566c0.94226 0.46895 1.2883 1.5402 0.77344 2.3984l-22.189 36.977c-0.3942 0.65707-1.1784 0.98669-1.9453 0.89844-0.23475-0.02702-0.46471-0.08344-0.68555-0.19336-0.02383-0.01075-19.34-14.539-19.34-14.539-0.9423-0.46894-1.2883-1.5402-0.77344-2.3984l4.7441-5.5469c0.51487-0.85821 1.6906-1.1604 2.6328-0.69141l10.578 7.6621 16.453-27.42c0.38616-0.64366 1.1332-0.97767 1.8848-0.9082z" style="display:block;fill:#808080"/>
   </g>
   <g transform="matrix(1.4573 0 0 1.4561 178.06 -11.767)"></g>
  </g>
 </g>
</svg>
